<svg width="452" height="151" viewBox="0 0 452 151" fill="none" xmlns="http://www.w3.org/2000/svg">
<g clip-path="url(#clip0_2_58)">
<path d="M150.161 75.0732C150.161 116.509 116.557 150.097 75.1136 150.097C33.6569 150.097 0.054718 116.509 0.054718 75.0732C0.054718 33.6475 33.6569 0.0564709 75.1136 0.0564709C116.559 0.0565803 150.161 33.6475 150.161 75.0732Z" fill="#00979D"/>
<path opacity="0.5" d="M150.161 75.1356C150.161 116.57 116.557 150.159 75.1136 150.159C33.6569 150.159 0.054718 116.569 0.054718 75.1356C0.054718 33.7092 33.6569 0.118296 75.1136 0.118296C116.559 0.120047 150.161 33.7091 150.161 75.1356Z" fill="url(#paint0_linear_2_58)"/>
<path d="M103.774 101.902C102.361 101.902 100.914 101.8 99.4905 101.588C87.5606 99.8862 79.5835 91.3216 75.1152 84.7377C70.6329 91.3214 62.6563 99.8946 50.7317 101.594C49.3128 101.797 47.8812 101.899 46.4478 101.899C39.0308 101.899 32.0679 99.1397 26.8305 94.1294C21.5432 89.0777 18.6256 82.2989 18.6256 75.0704C18.6256 67.8329 21.5431 61.0633 26.8382 56.0025C32.0706 50.9915 39.0386 48.2401 46.4587 48.2401C47.8729 48.2401 49.3123 48.3417 50.7306 48.5447C62.6555 50.2446 70.6317 58.8103 75.1145 65.3953C79.5836 58.8103 87.5601 50.2471 99.489 48.5447C100.912 48.3408 102.351 48.2401 103.766 48.2401C111.183 48.2401 118.15 50.9986 123.382 56.0025C128.675 61.0633 131.586 67.8329 131.586 75.0704C131.586 82.2989 128.682 89.0777 123.39 94.1294C118.148 99.1396 111.191 101.902 103.774 101.902M80.3975 75.0732C82.7274 79.5087 89.6004 90.5764 100.835 92.1848C101.818 92.3201 102.808 92.3953 103.773 92.3953C113.865 92.3953 122.079 84.6257 122.079 75.0705C122.079 65.5154 113.866 57.746 103.766 57.746C102.801 57.746 101.811 57.8148 100.837 57.9562C89.6005 59.5608 82.7275 70.6285 80.3975 75.0732ZM46.4586 57.7485C36.3536 57.7485 28.1376 65.5176 28.1376 75.0731C28.1376 84.6266 36.3502 92.3978 46.446 92.3978C47.4151 92.3978 48.4052 92.3225 49.3885 92.1874C60.6234 90.5792 67.4943 79.5177 69.8255 75.0758C67.5007 70.6402 60.6233 59.5633 49.3885 57.964C48.4167 57.8173 47.4241 57.7485 46.4586 57.7485" fill="white"/>
<path d="M38.7932 72.4499H55.5011V77.8316H38.7932V72.4499ZM111.275 72.4499H105.619V66.7874H100.217V72.4499H94.5627V77.8316H100.217V83.493H105.619V77.8316H111.275V72.4499Z" fill="white"/>
</g>
<path d="M209.01 47.0141H185.216L211.59 75.108L185.216 103.202H209.01L235.383 75.108L209.01 47.0141Z" fill="black"/>
<path d="M248.177 47.0141H224.383L250.757 75.108L224.383 103.202H248.177L274.551 75.108L248.177 47.0141Z" fill="black"/>
<path d="M287.345 47.0141H263.551L289.925 75.108L263.551 103.202H287.345L313.719 75.108L287.345 47.0141Z" fill="black"/>
<g clip-path="url(#clip1_2_58)">
<path d="M348.719 23.7937H451.347V133.876C451.347 137.042 448.78 139.609 445.614 139.609H354.452C351.285 139.609 348.719 137.042 348.719 133.876V23.7937Z" fill="#589B00" fill-opacity="0.1"/>
<path d="M350.439 25.5138H449.627V133.876C449.627 136.092 447.83 137.889 445.614 137.889H354.452C352.235 137.889 350.439 136.092 350.439 133.876V25.5138Z" stroke="black" stroke-opacity="0.3" stroke-width="3.44006"/>
<rect x="348.719" y="10.6068" width="102.628" height="26.9471" fill="#589B00"/>
<path d="M391.458 22.5278H387.017C386.986 22.1604 386.902 21.827 386.765 21.5278C386.634 21.2286 386.45 20.9714 386.214 20.7561C385.983 20.5357 385.702 20.3677 385.371 20.2522C385.041 20.1314 384.665 20.0711 384.245 20.0711C383.51 20.0711 382.888 20.2496 382.379 20.6065C381.875 20.9635 381.492 21.4753 381.23 22.142C380.972 22.8087 380.844 23.6092 380.844 24.5436C380.844 25.5305 380.975 26.3573 381.237 27.024C381.505 27.6855 381.891 28.1842 382.395 28.5201C382.899 28.8508 383.505 29.0162 384.214 29.0162C384.618 29.0162 384.98 28.9663 385.301 28.8666C385.621 28.7616 385.899 28.612 386.135 28.4178C386.371 28.2235 386.563 27.9899 386.71 27.717C386.862 27.4387 386.965 27.1264 387.017 26.7799L391.458 26.8114C391.406 27.4938 391.214 28.1894 390.883 28.8981C390.553 29.6015 390.083 30.2525 389.474 30.8509C388.87 31.4441 388.122 31.9218 387.23 32.284C386.337 32.6462 385.301 32.8273 384.119 32.8273C382.639 32.8273 381.311 32.5097 380.135 31.8745C378.964 31.2394 378.038 30.3049 377.355 29.0713C376.678 27.8377 376.34 26.3285 376.34 24.5436C376.34 22.7483 376.686 21.2365 377.379 20.0081C378.072 18.7744 379.006 17.8427 380.182 17.2127C381.358 16.5775 382.671 16.2599 384.119 16.2599C385.138 16.2599 386.075 16.3991 386.931 16.6773C387.786 16.9555 388.537 17.3623 389.183 17.8978C389.828 18.428 390.348 19.0815 390.742 19.8585C391.135 20.6354 391.374 21.5252 391.458 22.5278ZM402.138 21.5199C402.096 20.995 401.899 20.5855 401.547 20.2916C401.201 19.9976 400.673 19.8506 399.964 19.8506C399.513 19.8506 399.143 19.9057 398.854 20.016C398.571 20.1209 398.361 20.2653 398.224 20.449C398.088 20.6328 398.017 20.8427 398.012 21.079C398.001 21.2732 398.035 21.4491 398.114 21.6065C398.198 21.7588 398.329 21.8979 398.508 22.0239C398.686 22.1446 398.914 22.2549 399.193 22.3546C399.471 22.4543 399.802 22.5436 400.185 22.6223L401.508 22.9058C402.4 23.0948 403.164 23.3441 403.799 23.6538C404.434 23.9636 404.954 24.3284 405.358 24.7484C405.762 25.1631 406.059 25.6303 406.248 26.15C406.442 26.6697 406.542 27.2366 406.547 27.8508C406.542 28.9112 406.277 29.8089 405.752 30.5438C405.227 31.2787 404.476 31.8378 403.5 32.221C402.529 32.6042 401.361 32.7958 399.996 32.7958C398.594 32.7958 397.371 32.5885 396.326 32.1738C395.287 31.7591 394.479 31.1212 393.901 30.2603C393.329 29.3942 393.04 28.2865 393.035 26.9374H397.193C397.219 27.4309 397.342 27.8456 397.563 28.1815C397.783 28.5175 398.093 28.7721 398.492 28.9453C398.896 29.1186 399.376 29.2052 399.933 29.2052C400.4 29.2052 400.791 29.1474 401.106 29.0319C401.421 28.9165 401.66 28.7564 401.823 28.5516C401.985 28.3469 402.069 28.1133 402.075 27.8508C402.069 27.6041 401.988 27.3889 401.831 27.2051C401.678 27.0161 401.426 26.8482 401.075 26.7012C400.723 26.5489 400.248 26.4072 399.649 26.276L398.043 25.9295C396.615 25.6198 395.489 25.1027 394.665 24.3783C393.846 23.6486 393.439 22.6538 393.444 21.3939C393.439 20.3703 393.712 19.4753 394.263 18.7088C394.82 17.9372 395.589 17.3361 396.571 16.9056C397.557 16.4752 398.689 16.2599 399.964 16.2599C401.266 16.2599 402.392 16.4778 403.342 16.9135C404.293 17.3492 405.025 17.9634 405.539 18.7561C406.059 19.5435 406.321 20.4648 406.327 21.5199H402.138ZM412.622 16.4804L415.929 27.8508H416.055L419.362 16.4804H424.308L418.985 32.6068H413L407.677 16.4804H412.622Z" fill="white"/>
<line x1="351.012" y1="56.4743" x2="449.054" y2="56.4743" stroke="#A1A59B" stroke-width="3.44006"/>
<line x1="374.519" y1="37.554" x2="374.519" y2="137.316" stroke="#A1A59B" stroke-width="3.44006"/>
<line x1="412.36" y1="37.554" x2="412.36" y2="137.316" stroke="#A1A59B" stroke-width="3.44006"/>
<line x1="351.012" y1="77.1147" x2="449.054" y2="77.1147" stroke="#A1A59B" stroke-width="3.44006"/>
<line x1="351.012" y1="97.755" x2="449.054" y2="97.755" stroke="#A1A59B" stroke-width="3.44006"/>
<line x1="351.012" y1="118.395" x2="449.054" y2="118.395" stroke="#A1A59B" stroke-width="3.44006"/>
</g>
<defs>
<linearGradient id="paint0_linear_2_58" x1="0.054718" y1="75.1389" x2="150.161" y2="75.1389" gradientUnits="userSpaceOnUse">
<stop offset="0.117" stop-color="white" stop-opacity="0"/>
<stop offset="0.252" stop-color="#C0D1D3" stop-opacity="0.153"/>
<stop offset="0.387" stop-color="#91B3B7" stop-opacity="0.306"/>
<stop offset="0.52" stop-color="#6D9FA3" stop-opacity="0.457"/>
<stop offset="0.65" stop-color="#4D9195" stop-opacity="0.604"/>
<stop offset="0.776" stop-color="#30888B" stop-opacity="0.746"/>
<stop offset="0.895" stop-color="#148386" stop-opacity="0.881"/>
<stop offset="1" stop-color="#008184"/>
</linearGradient>
<clipPath id="clip0_2_58">
<rect width="150.216" height="150.216" fill="white"/>
</clipPath>
<clipPath id="clip1_2_58">
<rect x="348.719" y="10.6068" width="102.628" height="129.002" rx="5.73343" fill="white"/>
</clipPath>
</defs>
</svg>
